<?xml version="1.0"?>
<svg version="1.1" xmlns="http://www.w3.org/2000/svg" xmlns:xlink="http://www.w3.org/1999/xlink" width="100" height="100">
    <desc iVinci="yes" version="4.6" gridStep="20" showGrid="no" snapToGrid="no" codePlatform="0"/>
    <g id="Layer1" name="Layer 1" opacity="1">
        <g id="Shape1">
            <desc shapeID="1" type="0" basicInfo-basicType="0" basicInfo-roundedRectRadius="12" basicInfo-polygonSides="6" basicInfo-starPoints="5" bounding="rect(-50.0063,-34.0207,100.013,68.0414)" text="" font-familyName="" font-pixelSize="20" font-bold="0" font-underline="0" font-alignment="1" strokeStyle="0" markerStart="0" markerEnd="0" shadowEnabled="0" shadowOffsetX="0" shadowOffsetY="2" shadowBlur="4" shadowOpacity="160" blurEnabled="0" blurRadius="4" transform="matrix(1,0,0,1,49.9937,44.9452)" pers-center="0,0" pers-size="0,0" pers-start="0,0" pers-end="0,0" locked="0" mesh="" flag=""/>
            <path id="shapePath1" d="M97.5937,56.6659 L86.0937,56.0659 C86.2937,55.3659 86.4937,54.5659 86.6937,53.8659 L97.6937,52.966 C98.3937,52.8659 98.9937,52.5659 99.3937,52.0659 C99.7937,51.5659 99.9937,50.8659 99.9937,50.1659 C99.8937,48.966 98.7937,47.966 97.3937,47.966 C97.2937,47.966 97.2937,47.966 97.1937,47.966 L87.0937,48.7659 C86.8937,41.5659 78.2937,12.6659 77.8937,11.466 C77.7937,11.2659 77.6937,11.0659 77.3937,10.966 C77.1937,10.8659 76.8937,10.966 76.6937,11.0659 L62.9937,20.966 C58.7937,19.6659 54.3937,19.0659 49.9937,19.0659 C45.4937,19.0659 41.0937,19.6659 36.9937,20.966 L23.1937,11.1659 C22.9937,10.966 22.6937,10.966 22.4937,10.966 C22.2937,11.0659 22.0937,11.2659 21.9937,11.466 C21.5937,12.6659 12.9937,41.6659 12.7937,48.7659 L2.7937,47.966 C1.39368,47.8659 0.193695,48.966 0.093689,50.2659 C-0.00631714,50.966 0.193695,51.6659 0.593689,52.1659 C0.993683,52.6659 1.6937,52.966 2.2937,53.0659 L13.2937,53.966 C13.3937,54.6659 13.5937,55.466 13.8937,56.1659 L2.39368,56.6659 C0.993683,56.7659 -0.106323,57.966 -0.00631714,59.3659 C0.093689,60.7659 1.1937,61.7659 2.49368,61.7659 L15.9937,61.0659 C21.9937,71.966 35.1937,78.966 49.9937,78.966 C64.7937,78.966 77.9937,71.966 83.9937,61.0659 L97.3937,61.7659 L97.4937,61.7659 C98.8937,61.7659 99.9937,60.6659 99.9937,59.3659 C100.094,57.966 98.9937,56.7659 97.5937,56.6659 M37.6937,48.8659 C35.2937,48.8659 33.3937,46.966 33.3937,44.5659 C33.3937,42.1659 35.2937,40.2659 37.6937,40.2659 C40.0937,40.2659 41.9937,42.1659 41.9937,44.5659 C41.8937,46.8659 39.9937,48.8659 37.6937,48.8659 M55.8937,58.2659 L49.9937,61.8659 L44.0937,58.3659 C43.6937,57.8659 43.3937,57.2659 43.3937,56.6659 C43.3937,54.466 46.2937,52.7659 49.8937,52.7659 C53.4937,52.7659 56.3937,54.5659 56.3937,56.6659 C56.4937,57.1659 56.2937,57.7659 55.8937,58.2659 M62.2937,48.8659 C59.8937,48.8659 57.9937,46.966 57.9937,44.5659 C57.9937,42.1659 59.8937,40.2659 62.2937,40.2659 C64.6937,40.2659 66.5937,42.1659 66.5937,44.5659 C66.5937,46.8659 64.6937,48.8659 62.2937,48.8659 Z" style="stroke:#323232;stroke-opacity:1;stroke-width:0.1;stroke-linejoin:miter;stroke-miterlimit:2;stroke-linecap:butt;fill-rule:nonzero;fill:#ffffff;fill-opacity:1;"/>
        </g>
        <g id="Shape2">
            <desc shapeID="2" type="0" basicInfo-basicType="0" basicInfo-roundedRectRadius="12" basicInfo-polygonSides="6" basicInfo-starPoints="5" bounding="rect(-34.6253,-2.28,69.2506,4.56)" text="" font-familyName="" font-pixelSize="20" font-bold="0" font-underline="0" font-alignment="1" strokeStyle="0" markerStart="0" markerEnd="0" shadowEnabled="0" shadowOffsetX="0" shadowOffsetY="2" shadowBlur="4" shadowOpacity="160" blurEnabled="0" blurRadius="4" transform="matrix(1.3731,0,0,1.3731,50.2396,89.714)" pers-center="0,0" pers-size="0,0" pers-start="0,0" pers-end="0,0" locked="0" mesh="" flag=""/>
            <path id="shapePath2" d="M5.29749,89.8307 C5.29749,89.9771 5.28148,90.119 5.24942,90.2563 C5.21737,90.3936 5.16704,90.5149 5.0984,90.6202 C5.02972,90.7255 4.9439,90.809 4.84094,90.8708 C4.73795,90.9326 4.61324,90.9635 4.46674,90.9635 C4.32486,90.9635 4.20128,90.9326 4.09602,90.8708 C3.99076,90.809 3.90377,90.7255 3.83513,90.6202 C3.76649,90.5149 3.71612,90.3936 3.6841,90.2563 C3.65205,90.119 3.63604,89.9771 3.63604,89.8307 C3.63604,89.6796 3.65205,89.5355 3.6841,89.3981 C3.71612,89.2608 3.76649,89.1395 3.83513,89.0343 C3.90377,88.929 3.99076,88.8455 4.09602,88.7837 C4.20128,88.7219 4.32486,88.691 4.46674,88.691 C4.61324,88.691 4.73795,88.7219 4.84094,88.7837 C4.9439,88.8455 5.02972,88.929 5.0984,89.0343 C5.16704,89.1395 5.21737,89.2608 5.24942,89.3981 C5.28148,89.5355 5.29749,89.6796 5.29749,89.8307 M2.69547,86.7 L2.69547,91.602 L3.6223,91.602 L3.6223,91.1488 L3.63604,91.1488 C3.74131,91.3457 3.89693,91.4853 4.10289,91.5677 C4.30885,91.65 4.5423,91.6912 4.80315,91.6912 C4.98166,91.6912 5.15791,91.6546 5.33181,91.5814 C5.50575,91.5082 5.66251,91.396 5.80209,91.245 C5.94172,91.0939 6.05498,90.9006 6.14193,90.6648 C6.22892,90.4291 6.27238,90.1488 6.27238,89.8238 C6.27238,89.4988 6.22892,89.2185 6.14193,88.9828 C6.05498,88.7471 5.94172,88.5537 5.80209,88.4026 C5.66251,88.2516 5.50575,88.1395 5.33181,88.0662 C5.15791,87.993 4.98166,87.9564 4.80315,87.9564 C4.58349,87.9564 4.37179,87.9987 4.16809,88.0834 C3.96444,88.1681 3.80307,88.3019 3.6841,88.485 L3.67036,88.485 L3.67036,86.7 L2.69547,86.7 M8.64057,92.0414 L10.1235,88.0525 L9.11429,88.0525 L8.33849,90.4829 L8.32474,90.4829 L7.52149,88.0525 L6.48479,88.0525 L7.72744,91.3823 C7.75489,91.4509 7.76863,91.5242 7.76863,91.602 C7.76863,91.7072 7.73775,91.8034 7.67595,91.8903 C7.61418,91.9773 7.51918,92.0276 7.39104,92.0414 C7.29491,92.046 7.19879,92.0436 7.1027,92.0345 C7.00657,92.0253 6.91275,92.0162 6.82119,92.007 L6.82119,92.8103 C6.92189,92.8195 7.02145,92.8275 7.11984,92.8343 C7.21827,92.8412 7.31779,92.8446 7.41849,92.8446 C7.75263,92.8446 8.01352,92.7828 8.20117,92.6593 C8.38881,92.5357 8.53531,92.3297 8.64057,92.0414 M12.4638,86.7 L12.4638,91.602 L13.5417,91.602 L13.5417,89.5766 L15.5945,89.5766 L15.5945,88.7391 L13.5417,88.7391 L13.5417,87.6062 L15.9103,87.6062 L15.9103,86.7 L12.4638,86.7 M16.4319,88.0525 L16.4319,91.602 L17.4068,91.602 L17.4068,90.0023 C17.4068,89.8421 17.4228,89.6934 17.4548,89.556 C17.4868,89.4188 17.5406,89.2986 17.6162,89.1956 C17.6917,89.0926 17.7912,89.0114 17.9148,88.9519 C18.0384,88.8924 18.1894,88.8626 18.3679,88.8626 C18.4274,88.8626 18.4892,88.8661 18.5533,88.8729 C18.6174,88.8798 18.6723,88.8878 18.7181,88.897 L18.7181,87.9907 C18.6402,87.9678 18.5693,87.9564 18.5052,87.9564 C18.3817,87.9564 18.2626,87.9747 18.1482,88.0113 C18.0338,88.0479 17.9262,88.0994 17.8255,88.1658 C17.7248,88.2322 17.6356,88.3122 17.5578,88.4061 C17.48,88.4999 17.4182,88.6018 17.3724,88.7116 L17.3587,88.7116 L17.3587,88.0525 L16.4319,88.0525 M19.0607,89.1441 C19.0744,88.9153 19.1316,88.7253 19.2323,88.5743 C19.333,88.4232 19.4612,88.3019 19.6168,88.2104 C19.7724,88.1189 19.9475,88.0537 20.142,88.0147 C20.3365,87.9758 20.5322,87.9564 20.729,87.9564 C20.9075,87.9564 21.0883,87.969 21.2714,87.9941 C21.4545,88.0193 21.6215,88.0685 21.7726,88.1417 C21.9236,88.215 22.0472,88.3168 22.1433,88.4473 C22.2394,88.5777 22.2875,88.7505 22.2875,88.9656 L22.2875,90.8124 C22.2875,90.9726 22.2966,91.126 22.3149,91.2724 C22.3333,91.4189 22.3653,91.5287 22.4111,91.602 L21.4224,91.602 C21.4041,91.5471 21.3893,91.491 21.3778,91.4338 C21.3664,91.3765 21.3584,91.3182 21.3538,91.2587 C21.1982,91.4189 21.0151,91.531 20.8045,91.5951 C20.594,91.6592 20.3789,91.6912 20.1592,91.6912 C19.9898,91.6912 19.8319,91.6706 19.6854,91.6294 C19.539,91.5882 19.4109,91.5242 19.301,91.4372 C19.1911,91.3502 19.1053,91.2404 19.0435,91.1076 C18.9818,90.9749 18.9508,90.817 18.9508,90.6339 C18.9508,90.4325 18.9863,90.2666 19.0573,90.1362 C19.1282,90.0057 19.2198,89.9016 19.3319,89.8238 C19.444,89.746 19.5722,89.6877 19.7164,89.6487 C19.8605,89.6098 20.0058,89.5789 20.1523,89.556 C20.2988,89.5331 20.4429,89.5148 20.5848,89.5011 C20.7267,89.4874 20.8526,89.4668 20.9625,89.4393 C21.0723,89.4119 21.1592,89.3718 21.2234,89.3192 C21.2874,89.2666 21.3172,89.1899 21.3126,89.0892 C21.3126,88.9839 21.2954,88.9004 21.2611,88.8386 C21.2268,88.7768 21.181,88.7288 21.1238,88.6945 C21.0666,88.6601 21.0002,88.6372 20.9247,88.6258 C20.8492,88.6143 20.7679,88.6086 20.681,88.6086 C20.4887,88.6086 20.3377,88.6498 20.2278,88.7322 C20.118,88.8146 20.0539,88.9519 20.0356,89.1441 L19.0607,89.1441 M21.3126,89.865 C21.2714,89.9016 21.2199,89.9302 21.1581,89.9508 C21.0963,89.9714 21.03,89.9886 20.959,90.0023 C20.8881,90.0161 20.8137,90.0275 20.7359,90.0366 C20.6581,90.0458 20.5803,90.0572 20.5024,90.0709 C20.4292,90.0847 20.3571,90.103 20.2862,90.1259 C20.2152,90.1488 20.1535,90.1797 20.1008,90.2186 C20.0482,90.2575 20.0058,90.3067 19.9738,90.3662 C19.9418,90.4257 19.9258,90.5012 19.9258,90.5927 C19.9258,90.6797 19.9418,90.7529 19.9738,90.8124 C20.0058,90.8719 20.0493,90.9189 20.1043,90.9532 C20.1592,90.9875 20.2232,91.0116 20.2965,91.0253 C20.3697,91.039 20.4452,91.0459 20.5231,91.0459 C20.7153,91.0459 20.864,91.0138 20.9693,90.9498 C21.0746,90.8857 21.1524,90.809 21.2027,90.7197 C21.2531,90.6305 21.284,90.5401 21.2954,90.4486 C21.3069,90.357 21.3126,90.2838 21.3126,90.2289 L21.3126,89.865 M23.0421,88.0525 L23.0421,91.602 L24.017,91.602 L24.017,89.7414 C24.017,89.3798 24.0765,89.1201 24.1955,88.9622 C24.3145,88.8043 24.5067,88.7253 24.7721,88.7253 C25.0056,88.7253 25.1681,88.7974 25.2596,88.9416 C25.3512,89.0857 25.3969,89.3043 25.3969,89.5973 L25.3969,91.602 L26.3718,91.602 L26.3718,89.4188 C26.3718,89.1991 26.3524,88.9988 26.3135,88.818 C26.2746,88.6372 26.2071,88.4839 26.1109,88.358 C26.0148,88.2322 25.8832,88.1337 25.7162,88.0628 C25.5491,87.9918 25.3351,87.9564 25.0742,87.9564 C24.8683,87.9564 24.6669,88.0033 24.4701,88.0971 C24.2733,88.191 24.1131,88.3409 23.9895,88.5468 L23.9689,88.5468 L23.9689,88.0525 L23.0421,88.0525 M29.5297,89.302 L30.4841,89.302 C30.4704,89.0732 30.4154,88.8752 30.3193,88.7082 C30.2232,88.5411 30.0985,88.4015 29.9451,88.2894 C29.7918,88.1772 29.6179,88.0937 29.4233,88.0388 C29.2288,87.9838 29.0263,87.9564 28.8157,87.9564 C28.5274,87.9564 28.2711,88.0045 28.0468,88.1005 C27.8225,88.1967 27.6326,88.3306 27.477,88.5022 C27.3214,88.6738 27.2035,88.8775 27.1234,89.1132 C27.0433,89.3489 27.0032,89.6041 27.0032,89.8787 C27.0032,90.1442 27.0467,90.3879 27.1337,90.6099 C27.2207,90.8319 27.3419,91.023 27.4976,91.1832 C27.6532,91.3434 27.842,91.4681 28.064,91.5574 C28.2859,91.6466 28.5297,91.6912 28.7952,91.6912 C29.2666,91.6912 29.6534,91.5677 29.9554,91.3205 C30.2575,91.0733 30.4406,90.714 30.5047,90.2426 L29.5641,90.2426 C29.532,90.4623 29.4531,90.6374 29.3272,90.7678 C29.2013,90.8983 29.0217,90.9635 28.7883,90.9635 C28.6372,90.9635 28.5091,90.9291 28.4038,90.8605 C28.2985,90.7919 28.215,90.7037 28.1532,90.5962 C28.0914,90.4886 28.0468,90.3685 28.0194,90.2358 C27.9919,90.103 27.9782,89.9726 27.9782,89.8444 C27.9782,89.7117 27.9919,89.5778 28.0194,89.4428 C28.0468,89.3078 28.0937,89.1842 28.1601,89.072 C28.2264,88.9599 28.3123,88.8683 28.4175,88.7974 C28.5228,88.7265 28.6533,88.691 28.8089,88.691 C29.2254,88.691 29.4657,88.8947 29.5297,89.302 M32.0556,87.5033 L32.0556,86.7 L31.0807,86.7 L31.0807,87.5033 L32.0556,87.5033 M31.0807,88.0525 L31.0807,91.602 L32.0556,91.602 L32.0556,88.0525 L31.0807,88.0525 M35.2135,89.4462 L33.6276,89.4462 C33.6322,89.3776 33.6471,89.2997 33.6722,89.2128 C33.6974,89.1258 33.7409,89.0434 33.8027,88.9656 C33.8645,88.8878 33.9469,88.8226 34.0499,88.77 C34.1528,88.7173 34.2821,88.691 34.4378,88.691 C34.6757,88.691 34.8531,88.7551 34.9698,88.8832 C35.0865,89.0114 35.1678,89.1991 35.2135,89.4462 M33.6276,90.0641 L36.1885,90.0641 C36.2068,89.7895 36.1839,89.5263 36.1198,89.2746 C36.0557,89.0229 35.9516,88.7985 35.8074,88.6018 C35.6632,88.4049 35.479,88.2482 35.2548,88.1315 C35.0304,88.0147 34.7673,87.9564 34.4652,87.9564 C34.1952,87.9564 33.9492,88.0045 33.7272,88.1005 C33.5052,88.1967 33.3141,88.3282 33.1539,88.4953 C32.9937,88.6624 32.8701,88.8603 32.7831,89.0892 C32.6962,89.3181 32.6527,89.5652 32.6527,89.8307 C32.6527,90.1053 32.6951,90.357 32.7797,90.5859 C32.8644,90.8147 32.9845,91.0116 33.1402,91.1763 C33.2958,91.3411 33.4857,91.4681 33.71,91.5574 C33.9343,91.6466 34.186,91.6912 34.4652,91.6912 C34.868,91.6912 35.2113,91.5997 35.495,91.4166 C35.7788,91.2335 35.9893,90.9291 36.1266,90.5035 L35.2685,90.5035 C35.2364,90.6133 35.1495,90.7175 35.0076,90.8159 C34.8657,90.9143 34.6963,90.9635 34.4995,90.9635 C34.2249,90.9635 34.0144,90.8926 33.8679,90.7507 C33.7215,90.6088 33.6413,90.3799 33.6276,90.0641 M36.792,86.7 L36.792,91.602 L37.7669,91.602 L37.7669,86.7 L36.792,86.7 M38.5631,86.7 L38.5631,91.602 L39.538,91.602 L39.538,86.7 L38.5631,86.7 M42.0574,92.0414 L43.5404,88.0525 L42.5311,88.0525 L41.7553,90.4829 L41.7416,90.4829 L40.9383,88.0525 L39.9016,88.0525 L41.1443,91.3823 C41.1717,91.4509 41.1855,91.5242 41.1855,91.602 C41.1855,91.7072 41.1546,91.8034 41.0928,91.8903 C41.031,91.9773 40.936,92.0276 40.8078,92.0414 C40.7118,92.046 40.6156,92.0436 40.5195,92.0345 C40.4234,92.0253 40.3296,92.0162 40.238,92.007 L40.238,92.8103 C40.3387,92.8195 40.4383,92.8275 40.5367,92.8343 C40.6351,92.8412 40.7346,92.8446 40.8353,92.8446 C41.1694,92.8446 41.4303,92.7828 41.618,92.6593 C41.8057,92.5357 41.9521,92.3297 42.0574,92.0414 M49.1486,88.3477 L50.1922,88.3477 C50.1601,88.064 50.0823,87.8122 49.9588,87.5925 C49.8352,87.3728 49.6784,87.1886 49.4885,87.0398 C49.2985,86.8911 49.0834,86.7778 48.8431,86.7 C48.6028,86.6222 48.3476,86.5833 48.0776,86.5833 C47.7023,86.5833 47.3647,86.6497 47.0649,86.7824 C46.7651,86.9151 46.5123,87.0982 46.3063,87.3316 C46.1003,87.5651 45.9424,87.8385 45.8326,88.152 C45.7227,88.4656 45.6678,88.8054 45.6678,89.1716 C45.6678,89.5286 45.7227,89.8615 45.8326,90.1705 C45.9424,90.4795 46.1003,90.7484 46.3063,90.9772 C46.5123,91.2061 46.7651,91.3857 47.0649,91.5162 C47.3647,91.6466 47.7023,91.7118 48.0776,91.7118 C48.3797,91.7118 48.6566,91.6661 48.9083,91.5745 C49.1601,91.483 49.3798,91.3502 49.5674,91.1763 C49.7551,91.0024 49.9061,90.7919 50.0205,90.5447 C50.135,90.2975 50.2059,90.0206 50.2333,89.714 L49.1898,89.714 C49.1486,90.0435 49.0353,90.309 48.85,90.5103 C48.6646,90.7117 48.4071,90.8124 48.0776,90.8124 C47.835,90.8124 47.629,90.7655 47.4597,90.6717 C47.2904,90.5779 47.153,90.4531 47.0478,90.2975 C46.9425,90.1419 46.8658,89.9669 46.8178,89.7723 C46.7697,89.5778 46.7457,89.3776 46.7457,89.1716 C46.7457,88.9565 46.7697,88.7482 46.8178,88.5468 C46.8658,88.3454 46.9425,88.1658 47.0478,88.0079 C47.153,87.85 47.2904,87.7241 47.4597,87.6303 C47.629,87.5364 47.835,87.4895 48.0776,87.4895 C48.2103,87.4895 48.3373,87.5113 48.4586,87.5547 C48.5799,87.5982 48.6886,87.6589 48.7847,87.7367 C48.8809,87.8145 48.9609,87.9049 49.025,88.0079 C49.0891,88.1109 49.1303,88.2242 49.1486,88.3477 M51.7296,89.8307 C51.7296,89.6888 51.7434,89.5492 51.7708,89.4119 C51.7983,89.2746 51.8452,89.1533 51.9116,89.048 C51.9779,88.9427 52.066,88.8569 52.1759,88.7905 C52.2857,88.7242 52.423,88.691 52.5878,88.691 C52.7526,88.691 52.891,88.7242 53.0032,88.7905 C53.1153,88.8569 53.2045,88.9427 53.2709,89.048 C53.3373,89.1533 53.3842,89.2746 53.4117,89.4119 C53.4391,89.5492 53.4529,89.6888 53.4529,89.8307 C53.4529,89.9726 53.4391,90.111 53.4117,90.246 C53.3842,90.3811 53.3373,90.5023 53.2709,90.6099 C53.2045,90.7175 53.1153,90.8033 53.0032,90.8674 C52.891,90.9314 52.7526,90.9635 52.5878,90.9635 C52.423,90.9635 52.2857,90.9314 52.1759,90.8674 C52.066,90.8033 51.9779,90.7175 51.9116,90.6099 C51.8452,90.5023 51.7983,90.3811 51.7708,90.246 C51.7434,90.111 51.7296,89.9726 51.7296,89.8307 M50.7547,89.8307 C50.7547,90.1144 50.7982,90.3708 50.8852,90.5996 C50.9721,90.8284 51.0957,91.0241 51.2559,91.1866 C51.4161,91.3491 51.6083,91.4738 51.8326,91.5608 C52.0569,91.6477 52.3086,91.6912 52.5878,91.6912 C52.867,91.6912 53.1199,91.6477 53.3465,91.5608 C53.573,91.4738 53.7664,91.3491 53.9266,91.1866 C54.0868,91.0241 54.2104,90.8284 54.2973,90.5996 C54.3843,90.3708 54.4277,90.1144 54.4277,89.8307 C54.4277,89.5469 54.3843,89.2894 54.2973,89.0583 C54.2104,88.8272 54.0868,88.6303 53.9266,88.4679 C53.7664,88.3054 53.573,88.1795 53.3465,88.0903 C53.1199,88.001 52.867,87.9564 52.5878,87.9564 C52.3086,87.9564 52.0569,88.001 51.8326,88.0903 C51.6083,88.1795 51.4161,88.3054 51.2559,88.4679 C51.0957,88.6303 50.9721,88.8272 50.8852,89.0583 C50.7982,89.2894 50.7547,89.5469 50.7547,89.8307 M55.8142,90.4486 L54.8873,90.4486 C54.8965,90.6866 54.9502,90.8846 55.0487,91.0424 C55.1471,91.2003 55.2729,91.3273 55.4263,91.4235 C55.5796,91.5196 55.7547,91.5882 55.9515,91.6294 C56.1483,91.6706 56.3497,91.6912 56.5556,91.6912 C56.757,91.6912 56.955,91.6718 57.1495,91.6329 C57.344,91.594 57.5168,91.5265 57.6679,91.4303 C57.8189,91.3342 57.9413,91.2072 58.0352,91.0493 C58.129,90.8914 58.1759,90.6957 58.1759,90.4623 C58.1759,90.2975 58.1439,90.1591 58.0798,90.0469 C58.0157,89.9348 57.931,89.841 57.8258,89.7655 C57.7205,89.6899 57.6003,89.6293 57.4653,89.5835 C57.3303,89.5378 57.1919,89.4988 57.05,89.4668 C56.9126,89.4348 56.7776,89.405 56.6449,89.3776 C56.5122,89.3501 56.3943,89.3192 56.2913,89.2849 C56.1883,89.2505 56.1048,89.2059 56.0407,89.151 C55.9766,89.0961 55.9446,89.0251 55.9446,88.9382 C55.9446,88.8649 55.9629,88.8066 55.9995,88.7631 C56.0361,88.7196 56.0808,88.6864 56.1334,88.6635 C56.186,88.6406 56.2444,88.6258 56.3085,88.6189 C56.3725,88.612 56.4321,88.6086 56.487,88.6086 C56.6609,88.6086 56.812,88.6418 56.9401,88.7082 C57.0683,88.7745 57.1392,88.9015 57.153,89.0892 L58.0798,89.0892 C58.0615,88.8695 58.0054,88.6876 57.9116,88.5434 C57.8178,88.3992 57.6999,88.2836 57.558,88.1967 C57.4161,88.1097 57.2548,88.0479 57.074,88.0113 C56.8932,87.9747 56.7067,87.9564 56.5144,87.9564 C56.3222,87.9564 56.1346,87.9735 55.9515,88.0079 C55.7684,88.0422 55.6036,88.1017 55.4572,88.1864 C55.3107,88.271 55.1928,88.3866 55.1036,88.5331 C55.0143,88.6796 54.9697,88.8672 54.9697,89.0961 C54.9697,89.2517 55.0018,89.3833 55.0658,89.4908 C55.1299,89.5984 55.2146,89.6877 55.3198,89.7586 C55.4251,89.8295 55.5453,89.8867 55.6803,89.9302 C55.8153,89.9737 55.9538,90.0115 56.0956,90.0435 C56.4435,90.1167 56.7147,90.1899 56.9092,90.2632 C57.1037,90.3364 57.201,90.4463 57.201,90.5927 C57.201,90.6797 57.1804,90.7518 57.1392,90.809 C57.098,90.8662 57.0465,90.912 56.9847,90.9463 C56.923,90.9806 56.8543,91.0058 56.7788,91.0218 C56.7033,91.0379 56.6312,91.0459 56.5625,91.0459 C56.4664,91.0459 56.3737,91.0344 56.2845,91.0116 C56.1952,90.9886 56.1163,90.9532 56.0476,90.9051 C55.9789,90.8571 55.9229,90.7953 55.8794,90.7197 C55.8359,90.6442 55.8142,90.5538 55.8142,90.4486 M59.9807,88.0525 L59.9807,86.9883 L59.0058,86.9883 L59.0058,88.0525 L58.4154,88.0525 L58.4154,88.7047 L59.0058,88.7047 L59.0058,90.7987 C59.0058,90.9772 59.0355,91.1214 59.095,91.2312 C59.1545,91.3411 59.2358,91.4258 59.3387,91.4853 C59.4417,91.5447 59.5608,91.5848 59.6958,91.6054 C59.8308,91.626 59.9738,91.6363 60.1249,91.6363 C60.221,91.6363 60.3194,91.634 60.4201,91.6294 C60.5208,91.6249 60.6123,91.6157 60.6947,91.602 L60.6947,90.8467 C60.6489,90.8559 60.6008,90.8628 60.5505,90.8674 C60.5002,90.8719 60.4475,90.8742 60.3926,90.8742 C60.2278,90.8742 60.118,90.8467 60.0631,90.7919 C60.0082,90.7369 59.9807,90.6271 59.9807,90.4623 L59.9807,88.7047 L60.6947,88.7047 L60.6947,88.0525 L59.9807,88.0525 M61.1195,89.1441 C61.1332,88.9153 61.1904,88.7253 61.2911,88.5743 C61.3918,88.4232 61.52,88.3019 61.6756,88.2104 C61.8312,88.1189 62.0063,88.0537 62.2008,88.0147 C62.3953,87.9758 62.591,87.9564 62.7878,87.9564 C62.9663,87.9564 63.1471,87.969 63.3302,87.9941 C63.5133,88.0193 63.6803,88.0685 63.8314,88.1417 C63.9824,88.215 64.106,88.3168 64.2021,88.4473 C64.2982,88.5777 64.3463,88.7505 64.3463,88.9656 L64.3463,90.8124 C64.3463,90.9726 64.3554,91.126 64.3737,91.2724 C64.3921,91.4189 64.4241,91.5287 64.4699,91.602 L63.4812,91.602 C63.4629,91.5471 63.448,91.491 63.4366,91.4338 C63.4252,91.3765 63.4172,91.3182 63.4126,91.2587 C63.257,91.4189 63.0739,91.531 62.8633,91.5951 C62.6528,91.6592 62.4377,91.6912 62.218,91.6912 C62.0486,91.6912 61.8907,91.6706 61.7443,91.6294 C61.5978,91.5882 61.4696,91.5242 61.3598,91.4372 C61.2499,91.3502 61.1641,91.2404 61.1024,91.1076 C61.0405,90.9749 61.0097,90.817 61.0097,90.6339 C61.0097,90.4325 61.0451,90.2666 61.1161,90.1362 C61.187,90.0057 61.2786,89.9016 61.3907,89.8238 C61.5028,89.746 61.631,89.6877 61.7752,89.6487 C61.9193,89.6098 62.0646,89.5789 62.2111,89.556 C62.3576,89.5331 62.5018,89.5148 62.6437,89.5011 C62.7855,89.4874 62.9114,89.4668 63.0213,89.4393 C63.1311,89.4119 63.2181,89.3718 63.2822,89.3192 C63.3462,89.2666 63.376,89.1899 63.3714,89.0892 C63.3714,88.9839 63.3542,88.9004 63.3199,88.8386 C63.2856,88.7768 63.2398,88.7288 63.1826,88.6945 C63.1254,88.6601 63.059,88.6372 62.9835,88.6258 C62.9079,88.6143 62.8267,88.6086 62.7397,88.6086 C62.5475,88.6086 62.3965,88.6498 62.2866,88.7322 C62.1768,88.8146 62.1127,88.9519 62.0944,89.1441 L61.1195,89.1441 M63.3714,89.865 C63.3302,89.9016 63.2787,89.9302 63.2169,89.9508 C63.1551,89.9714 63.0888,89.9886 63.0178,90.0023 C62.9469,90.0161 62.8725,90.0275 62.7947,90.0366 C62.7169,90.0458 62.639,90.0572 62.5613,90.0709 C62.488,90.0847 62.416,90.103 62.345,90.1259 C62.2741,90.1488 62.2123,90.1797 62.1596,90.2186 C62.107,90.2575 62.0646,90.3067 62.0326,90.3662 C62.0006,90.4257 61.9846,90.5012 61.9846,90.5927 C61.9846,90.6797 62.0006,90.7529 62.0326,90.8124 C62.0646,90.8719 62.1081,90.9189 62.1631,90.9532 C62.218,90.9875 62.2821,91.0116 62.3553,91.0253 C62.4285,91.039 62.504,91.0459 62.5819,91.0459 C62.7741,91.0459 62.9228,91.0138 63.0281,90.9498 C63.1334,90.8857 63.2112,90.809 63.2615,90.7197 C63.3119,90.6305 63.3428,90.5401 63.3542,90.4486 C63.3657,90.357 63.3714,90.2838 63.3714,90.2289 L63.3714,89.865 M65.1009,88.0525 L65.1009,91.602 L66.0757,91.602 L66.0757,89.7414 C66.0757,89.3798 66.1353,89.1201 66.2543,88.9622 C66.3733,88.8043 66.5655,88.7253 66.831,88.7253 C67.0644,88.7253 67.2269,88.7974 67.3184,88.9416 C67.41,89.0857 67.4557,89.3043 67.4557,89.5973 L67.4557,91.602 L68.4306,91.602 L68.4306,89.4188 C68.4306,89.1991 68.4112,88.9988 68.3723,88.818 C68.3334,88.6372 68.2659,88.4839 68.1697,88.358 C68.0736,88.2322 67.942,88.1337 67.775,88.0628 C67.6079,87.9918 67.394,87.9564 67.1331,87.9564 C66.9271,87.9564 66.7257,88.0033 66.5289,88.0971 C66.3321,88.191 66.1719,88.3409 66.0483,88.5468 L66.0277,88.5468 L66.0277,88.0525 L65.1009,88.0525 M70.4077,88.0525 L70.4077,86.9883 L69.4328,86.9883 L69.4328,88.0525 L68.8424,88.0525 L68.8424,88.7047 L69.4328,88.7047 L69.4328,90.7987 C69.4328,90.9772 69.4625,91.1214 69.522,91.2312 C69.5815,91.3411 69.6628,91.4258 69.7658,91.4853 C69.8688,91.5447 69.9878,91.5848 70.1228,91.6054 C70.2578,91.626 70.4008,91.6363 70.5519,91.6363 C70.648,91.6363 70.7464,91.634 70.8471,91.6294 C70.9478,91.6249 71.0393,91.6157 71.1217,91.602 L71.1217,90.8467 C71.0759,90.8559 71.0279,90.8628 70.9775,90.8674 C70.9272,90.8719 70.8745,90.8742 70.8196,90.8742 C70.6548,90.8742 70.545,90.8467 70.4901,90.7919 C70.4352,90.7369 70.4077,90.6271 70.4077,90.4623 L70.4077,88.7047 L71.1217,88.7047 L71.1217,88.0525 L70.4077,88.0525 M72.5901,87.5033 L72.5901,86.7 L71.6152,86.7 L71.6152,87.5033 L72.5901,87.5033 M71.6152,88.0525 L71.6152,91.602 L72.5901,91.602 L72.5901,88.0525 L71.6152,88.0525 M73.3588,88.0525 L73.3588,91.602 L74.3337,91.602 L74.3337,89.7414 C74.3337,89.3798 74.3932,89.1201 74.5122,88.9622 C74.6312,88.8043 74.8234,88.7253 75.0889,88.7253 C75.3223,88.7253 75.4848,88.7974 75.5763,88.9416 C75.6679,89.0857 75.7137,89.3043 75.7137,89.5973 L75.7137,91.602 L76.6886,91.602 L76.6886,89.4188 C76.6886,89.1991 76.6691,88.9988 76.6302,88.818 C76.5913,88.6372 76.5238,88.4839 76.4277,88.358 C76.3315,88.2322 76.2,88.1337 76.0329,88.0628 C75.8659,87.9918 75.6519,87.9564 75.391,87.9564 C75.185,87.9564 74.9836,88.0033 74.7868,88.0971 C74.59,88.191 74.4298,88.3409 74.3062,88.5468 L74.2856,88.5468 L74.2856,88.0525 L73.3588,88.0525 M80.1758,89.9749 L79.1323,89.9749 C79.1277,90.2769 79.1826,90.5378 79.297,90.7575 C79.4115,90.9772 79.5659,91.158 79.7604,91.2999 C79.955,91.4418 80.1793,91.5459 80.4333,91.6123 C80.6873,91.6786 80.9493,91.7118 81.2194,91.7118 C81.5535,91.7118 81.8476,91.6729 82.1016,91.5951 C82.3556,91.5173 82.5685,91.4086 82.7401,91.269 C82.9117,91.1294 83.041,90.9635 83.128,90.7712 C83.2149,90.579 83.2584,90.3708 83.2584,90.1465 C83.2584,89.8719 83.2001,89.6465 83.0834,89.4702 C82.9667,89.294 82.8282,89.1533 82.668,89.048 C82.5078,88.9427 82.3464,88.8661 82.184,88.818 C82.0215,88.77 81.8945,88.7368 81.8029,88.7185 C81.4963,88.6406 81.248,88.5766 81.058,88.5262 C80.8681,88.4759 80.7193,88.4255 80.6118,88.3752 C80.5042,88.3249 80.4321,88.2699 80.3955,88.2104 C80.3589,88.1509 80.3406,88.0731 80.3406,87.977 C80.3406,87.8717 80.3635,87.7848 80.4092,87.7161 C80.455,87.6474 80.5134,87.5902 80.5843,87.5444 C80.6553,87.4987 80.7342,87.4667 80.8212,87.4484 C80.9081,87.43 80.9951,87.4209 81.0821,87.4209 C81.2148,87.4209 81.3372,87.4323 81.4494,87.4552 C81.5615,87.4781 81.6611,87.517 81.748,87.5719 C81.835,87.6268 81.9048,87.7024 81.9574,87.7985 C82.01,87.8946 82.041,88.0159 82.0501,88.1624 L83.0937,88.1624 C83.0937,87.8786 83.0399,87.6371 82.9323,87.438 C82.8248,87.2389 82.6795,87.0753 82.4964,86.9471 C82.3133,86.819 82.1039,86.7263 81.8682,86.6691 C81.6324,86.6119 81.3864,86.5833 81.1301,86.5833 C80.9104,86.5833 80.6907,86.613 80.471,86.6725 C80.2513,86.732 80.0545,86.8236 79.8806,86.9471 C79.7067,87.0707 79.5659,87.2252 79.4584,87.4106 C79.3508,87.5959 79.297,87.8145 79.297,88.0662 C79.297,88.2905 79.3393,88.4816 79.424,88.6395 C79.5087,88.7974 79.6197,88.929 79.757,89.0343 C79.8943,89.1395 80.0499,89.2254 80.2239,89.2917 C80.3978,89.3581 80.5763,89.4141 80.7594,89.4599 C80.9379,89.5103 81.1141,89.556 81.288,89.5973 C81.4619,89.6385 81.6176,89.6865 81.7549,89.7414 C81.8922,89.7963 82.0032,89.865 82.0879,89.9474 C82.1725,90.0298 82.2149,90.1373 82.2149,90.2701 C82.2149,90.3936 82.1829,90.4955 82.1187,90.5756 C82.0547,90.6557 81.9746,90.7186 81.8785,90.7644 C81.7823,90.8102 81.6794,90.841 81.5695,90.8571 C81.4597,90.8731 81.3567,90.8811 81.2606,90.8811 C81.1187,90.8811 80.9814,90.8639 80.8486,90.8296 C80.7159,90.7953 80.6003,90.7426 80.5019,90.6717 C80.4035,90.6007 80.3246,90.5081 80.2651,90.3936 C80.2056,90.2792 80.1758,90.1396 80.1758,89.9749 M86.1825,89.4462 L84.5966,89.4462 C84.6011,89.3776 84.616,89.2997 84.6412,89.2128 C84.6664,89.1258 84.7099,89.0434 84.7716,88.9656 C84.8334,88.8878 84.9158,88.8226 85.0188,88.77 C85.1218,88.7173 85.2511,88.691 85.4067,88.691 C85.6447,88.691 85.8221,88.7551 85.9388,88.8832 C86.0555,89.0114 86.1367,89.1991 86.1825,89.4462 M84.5966,90.0641 L87.1574,90.0641 C87.1757,89.7895 87.1528,89.5263 87.0887,89.2746 C87.0247,89.0229 86.9205,88.7985 86.7763,88.6018 C86.6322,88.4049 86.4479,88.2482 86.2237,88.1315 C85.9994,88.0147 85.7363,87.9564 85.4342,87.9564 C85.1641,87.9564 84.9181,88.0045 84.6961,88.1005 C84.4741,88.1967 84.283,88.3282 84.1228,88.4953 C83.9626,88.6624 83.8391,88.8603 83.7521,89.0892 C83.6652,89.3181 83.6217,89.5652 83.6217,89.8307 C83.6217,90.1053 83.664,90.357 83.7487,90.5859 C83.8334,90.8147 83.9535,91.0116 84.1091,91.1763 C84.2647,91.3411 84.4547,91.4681 84.6789,91.5574 C84.9032,91.6466 85.155,91.6912 85.4342,91.6912 C85.8369,91.6912 86.1802,91.5997 86.464,91.4166 C86.7478,91.2335 86.9583,90.9291 87.0956,90.5035 L86.2374,90.5035 C86.2054,90.6133 86.1184,90.7175 85.9765,90.8159 C85.8346,90.9143 85.6653,90.9635 85.4685,90.9635 C85.1938,90.9635 84.9833,90.8926 84.8369,90.7507 C84.6904,90.6088 84.6103,90.3799 84.5966,90.0641 M87.7335,88.0525 L87.7335,91.602 L88.7084,91.602 L88.7084,89.7414 C88.7084,89.3798 88.7679,89.1201 88.8869,88.9622 C89.0059,88.8043 89.1981,88.7253 89.4635,88.7253 C89.697,88.7253 89.8595,88.7974 89.951,88.9416 C90.0426,89.0857 90.0883,89.3043 90.0883,89.5973 L90.0883,91.602 L91.0632,91.602 L91.0632,89.4188 C91.0632,89.1991 91.0438,88.9988 91.0049,88.818 C90.966,88.6372 90.8985,88.4839 90.8023,88.358 C90.7062,88.2322 90.5746,88.1337 90.4076,88.0628 C90.2405,87.9918 90.0265,87.9564 89.7656,87.9564 C89.5597,87.9564 89.3583,88.0033 89.1615,88.0971 C88.9647,88.191 88.8045,88.3409 88.6809,88.5468 L88.6603,88.5468 L88.6603,88.0525 L87.7335,88.0525 M91.8045,88.0525 L91.8045,91.602 L92.7794,91.602 L92.7794,90.0023 C92.7794,89.8421 92.7954,89.6934 92.8275,89.556 C92.8595,89.4188 92.9133,89.2986 92.9888,89.1956 C93.0643,89.0926 93.1639,89.0114 93.2874,88.9519 C93.411,88.8924 93.5621,88.8626 93.7406,88.8626 C93.8001,88.8626 93.8619,88.8661 93.9259,88.8729 C93.99,88.8798 94.0449,88.8878 94.0907,88.897 L94.0907,87.9907 C94.0129,87.9678 93.942,87.9564 93.8779,87.9564 C93.7543,87.9564 93.6353,87.9747 93.5209,88.0113 C93.4064,88.0479 93.2989,88.0994 93.1982,88.1658 C93.0975,88.2322 93.0082,88.3122 92.9305,88.4061 C92.8526,88.4999 92.7908,88.6018 92.7451,88.7116 L92.7313,88.7116 L92.7313,88.0525 L91.8045,88.0525 M94.4333,89.1441 C94.4471,88.9153 94.5043,88.7253 94.605,88.5743 C94.7057,88.4232 94.8338,88.3019 94.9894,88.2104 C95.1451,88.1189 95.3202,88.0537 95.5147,88.0147 C95.7092,87.9758 95.9048,87.9564 96.1017,87.9564 C96.2802,87.9564 96.461,87.969 96.6441,87.9941 C96.8271,88.0193 96.9942,88.0685 97.1452,88.1417 C97.2962,88.215 97.4199,88.3168 97.516,88.4473 C97.6121,88.5777 97.6601,88.7505 97.6601,88.9656 L97.6601,90.8124 C97.6601,90.9726 97.6693,91.126 97.6876,91.2724 C97.7059,91.4189 97.738,91.5287 97.7837,91.602 L96.7951,91.602 C96.7768,91.5471 96.7619,91.491 96.7505,91.4338 C96.739,91.3765 96.731,91.3182 96.7264,91.2587 C96.5708,91.4189 96.3877,91.531 96.1772,91.5951 C95.9666,91.6592 95.7515,91.6912 95.5318,91.6912 C95.3625,91.6912 95.2046,91.6706 95.0581,91.6294 C94.9116,91.5882 94.7835,91.5242 94.6737,91.4372 C94.5638,91.3502 94.478,91.2404 94.4162,91.1076 C94.3544,90.9749 94.3235,90.817 94.3235,90.6339 C94.3235,90.4325 94.359,90.2666 94.4299,90.1362 C94.5008,90.0057 94.5924,89.9016 94.7045,89.8238 C94.8167,89.746 94.9448,89.6877 95.089,89.6487 C95.2332,89.6098 95.3785,89.5789 95.525,89.556 C95.6714,89.5331 95.8156,89.5148 95.9575,89.5011 C96.0994,89.4874 96.2252,89.4668 96.3351,89.4393 C96.4449,89.4119 96.5319,89.3718 96.596,89.3192 C96.6601,89.2666 96.6898,89.1899 96.6852,89.0892 C96.6852,88.9839 96.6681,88.9004 96.6338,88.8386 C96.5994,88.7768 96.5536,88.7288 96.4964,88.6945 C96.4392,88.6601 96.3729,88.6372 96.2973,88.6258 C96.2218,88.6143 96.1406,88.6086 96.0536,88.6086 C95.8614,88.6086 95.7103,88.6498 95.6005,88.7322 C95.4906,88.8146 95.4265,88.9519 95.4082,89.1441 L94.4333,89.1441 M96.6852,89.865 C96.6441,89.9016 96.5926,89.9302 96.5307,89.9508 C96.469,89.9714 96.4026,89.9886 96.3317,90.0023 C96.2607,90.0161 96.1863,90.0275 96.1085,90.0366 C96.0307,90.0458 95.9529,90.0572 95.8751,90.0709 C95.8019,90.0847 95.7298,90.103 95.6589,90.1259 C95.5879,90.1488 95.5261,90.1797 95.4735,90.2186 C95.4208,90.2575 95.3785,90.3067 95.3465,90.3662 C95.3144,90.4257 95.2984,90.5012 95.2984,90.5927 C95.2984,90.6797 95.3144,90.7529 95.3465,90.8124 C95.3785,90.8719 95.422,90.9189 95.4769,90.9532 C95.5318,90.9875 95.5959,91.0116 95.6691,91.0253 C95.7424,91.039 95.8179,91.0459 95.8957,91.0459 C96.088,91.0459 96.2367,91.0138 96.342,90.9498 C96.4472,90.8857 96.5251,90.809 96.5754,90.7197 C96.6257,90.6305 96.6566,90.5401 96.6681,90.4486 C96.6795,90.357 96.6852,90.2838 96.6852,90.2289 L96.6852,89.865 Z" style="stroke:#000000;stroke-opacity:1;stroke-width:0.1;stroke-linejoin:miter;stroke-miterlimit:2;stroke-linecap:butt;fill:none;"/>
        </g>
    </g>
</svg>
